<svg width="128" height="128" viewBox="0 0 128 128" fill="none" xmlns="http://www.w3.org/2000/svg">
<path d="M73.3057 56.9037L70.2611 51.4042L96.6794 52.194L103.984 64.8466L70.3911 62.0241L64.1612 51.2336L78.9546 21.4938L86.2319 34.0986L73.3057 56.9037Z" fill="#25A65F"/>
<path d="M55.1889 43.657L48.8548 44.7122L59.1662 20.4369L73.8476 17.7305L59.0059 48.0129L46.4852 50.321L23.543 27.0038L38.169 24.3076L55.1889 43.657Z" fill="#25A65F"/>
<path d="M69.3082 78.7294L73.5596 73.9123L81.3195 98.7279L71.6349 110.089L63.4975 77.8761L71.7567 68.1868L104.818 71.1608L95.1702 82.4792L69.3082 78.7294Z" fill="#25A65F"/>
<path d="M47.6698 57.0288L60.5487 54.6419L66.7987 66.1529L57.7824 75.654L45.9601 70.0151L47.6698 57.0288Z" fill="#25A65F"/>
</svg>
